<svg width="564" height="650" viewBox="0 0 564 650" fill="none" xmlns="http://www.w3.org/2000/svg">
<path d="M0.48996 295.05C0.48996 343.86 40.25 383.42 89.29 383.42H266.9C217.85 383.42 178.09 343.86 178.09 295.05C178.09 246.24 138.33 206.69 89.28 206.69C40.23 206.69 0.47998 246.25 0.47998 295.05" fill="#721465"/>
<path d="M266.71 383.28C217.54 383.28 177.69 423.04 177.69 472.09V649.7C177.69 600.65 217.55 560.89 266.71 560.89C315.87 560.89 355.74 521.13 355.74 472.09C355.74 423.05 315.88 383.28 266.71 383.28Z" fill="#10285E"/>
<path d="M266.93 28.77C316.1 28.77 355.95 68.53 355.95 117.58V295.19C355.95 246.14 316.09 206.39 266.93 206.39C217.77 206.39 177.9 166.63 177.9 117.59C177.9 68.55 217.76 28.78 266.93 28.78" fill="#FF8C00"/>

<path d="M534.01 294.62C534.01 343.67 494.15 383.43 444.98 383.43C395.81 383.43 355.96 423.18 355.96 472.23C355.96 423.18 316.1 383.43 266.94 383.43C217.78 383.43 177.91 343.67 177.91 294.63C177.91 245.59 217.77 205.82 266.94 205.82C316.11 205.82 355.95 245.57 355.96 294.62C355.96 245.57 395.82 205.82 444.98 205.82C494.14 205.82 534.01 245.57 534.01 294.62Z" fill="#FF5982"/>

<a href="https://www.idf.org/who-we-are/about-idf/logo.html#:~:text=The%20blue%20circle%20is%20the,to%20raise%20awareness%20about%20diabetes">
  <circle cx="474.32" cy="88.7" r="75" stroke="#5B89C7" stroke-width="27" fill="transparent" />
</a>

</svg>

