<svg viewBox="0 0 200 275" fill="none" xmlns="http://www.w3.org/2000/svg">
  <!--
  <rect width="200" height="275" stroke="red" stroke-width="2" />
  <rect width="215" height="300" stroke="red" stroke-width="2" />
<path d="M29.7616 0.674416C46.0194 0.674416 59.1956 13.7591 59.1956 29.901V88.3508C59.1956 72.2089 46.0161 59.1275 29.7616 59.1275C13.507 59.1275 0.324219 46.0429 0.324219 29.9043C0.324219 13.7657 13.5037 0.677705 29.7616 0.677705" fill="#721465"/>
<path d="M93.7084 123.126C109.844 123.126 122.927 136.145 122.927 152.208C122.927 168.271 109.847 181.286 93.7084 181.286C77.5696 181.286 64.4893 168.267 64.4893 152.208C64.4893 136.148 77.5696 123.126 93.7084 123.126Z" fill="#FF8C00"/>
<path d="M118.07 88.1632C118.07 104.305 104.89 117.39 88.6326 117.39C72.3747 117.39 59.1985 130.471 59.1985 146.613C59.1985 130.471 46.019 117.39 29.7645 117.39C13.51 117.39 0.327148 104.305 0.327148 88.1665C0.327148 72.0279 13.5067 58.94 29.7645 58.94C46.0223 58.94 59.1952 72.0213 59.1985 88.1632C59.1985 72.0213 72.378 58.94 88.6326 58.94C104.887 58.94 118.07 72.0213 118.07 88.1632Z" fill="#FF5982"/>
  -->
  <a href="https://www.idf.org/who-we-are/about-idf/logo.html#:~:text=The%20blue%20circle%20is%20the,to%20raise%20awareness%20about%20diabetes">
    <circle cx="75" cy="200" r="60" stroke="#5B89C7" stroke-width="25" fill="transparent" />
  </a>
  <g transform="translate(80,0)">
    <path transform="scale(-1,1) translate(-118.2,0.5)" d="M29.7616 0.674416C46.0194 0.674416 59.1956 13.7591 59.1956 29.901V88.3508C59.1956 72.2089 46.0161 59.1275 29.7616 59.1275C13.507 59.1275 0.324219 46.0429 0.324219 29.9043C0.324219 13.7657 13.5037 0.677705 29.7616 0.677705" fill="#10285E"/>
    <path d="M118.07 88.1632C118.07 104.305 104.89 117.39 88.6326 117.39C72.3747 117.39 59.1985 130.471 59.1985 146.613C59.1985 130.471 46.019 117.39 29.7645 117.39C13.51 117.39 0.327148 104.305 0.327148 88.1665C0.327148 72.0279 13.5067 58.94 29.7645 58.94C46.0223 58.94 59.1952 72.0213 59.1985 88.1632C59.1985 72.0213 72.378 58.94 88.6326 58.94C104.887 58.94 118.07 72.0213 118.07 88.1632Z" fill="#FF5982"/>
  </g>



</svg>
